# Tiled2Unity generated file. Do not modify by hand.
# Wavefront file for 'hallway_mesh_0001.obj'

# Vertices (Count = 176)
v 0 -160 0
v -32 -160 0
v -32 -128 0
v 0 -128 0
v -32 -160 0
v -64 -160 0
v -64 -128 0
v -32 -128 0
v -64 -160 0
v -96 -160 0
v -96 -128 0
v -64 -128 0
v -96 -160 0
v -128 -160 0
v -128 -128 0
v -96 -128 0
v -128 -160 0
v -160 -160 0
v -160 -128 0
v -128 -128 0
v -160 -160 0
v -192 -160 0
v -192 -128 0
v -160 -128 0
v -192 -160 0
v -224 -160 0
v -224 -128 0
v -192 -128 0
v -224 -160 0
v -256 -160 0
v -256 -128 0
v -224 -128 0
v -256 -160 0
v -288 -160 0
v -288 -128 0
v -256 -128 0
v -288 -160 0
v -320 -160 0
v -320 -128 0
v -288 -128 0
v -320 -160 0
v -352 -160 0
v -352 -128 0
v -320 -128 0
v 0 -192 0
v -32 -192 0
v -32 -160 0
v 0 -160 0
v -32 -192 0
v -64 -192 0
v -64 -160 0
v -32 -160 0
v -64 -192 0
v -96 -192 0
v -96 -160 0
v -64 -160 0
v -96 -192 0
v -128 -192 0
v -128 -160 0
v -96 -160 0
v -128 -192 0
v -160 -192 0
v -160 -160 0
v -128 -160 0
v -160 -192 0
v -192 -192 0
v -192 -160 0
v -160 -160 0
v -192 -192 0
v -224 -192 0
v -224 -160 0
v -192 -160 0
v -224 -192 0
v -256 -192 0
v -256 -160 0
v -224 -160 0
v -256 -192 0
v -288 -192 0
v -288 -160 0
v -256 -160 0
v -288 -192 0
v -320 -192 0
v -320 -160 0
v -288 -160 0
v -320 -192 0
v -352 -192 0
v -352 -160 0
v -320 -160 0
v 0 -224 0
v -32 -224 0
v -32 -192 0
v 0 -192 0
v -32 -224 0
v -64 -224 0
v -64 -192 0
v -32 -192 0
v -64 -224 0
v -96 -224 0
v -96 -192 0
v -64 -192 0
v -96 -224 0
v -128 -224 0
v -128 -192 0
v -96 -192 0
v -128 -224 0
v -160 -224 0
v -160 -192 0
v -128 -192 0
v -160 -224 0
v -192 -224 0
v -192 -192 0
v -160 -192 0
v -192 -224 0
v -224 -224 0
v -224 -192 0
v -192 -192 0
v -224 -224 0
v -256 -224 0
v -256 -192 0
v -224 -192 0
v -256 -224 0
v -288 -224 0
v -288 -192 0
v -256 -192 0
v -288 -224 0
v -320 -224 0
v -320 -192 0
v -288 -192 0
v -320 -224 0
v -352 -224 0
v -352 -192 0
v -320 -192 0
v 0 -256 0
v -32 -256 0
v -32 -224 0
v 0 -224 0
v -32 -256 0
v -64 -256 0
v -64 -224 0
v -32 -224 0
v -64 -256 0
v -96 -256 0
v -96 -224 0
v -64 -224 0
v -96 -256 0
v -128 -256 0
v -128 -224 0
v -96 -224 0
v -128 -256 0
v -160 -256 0
v -160 -224 0
v -128 -224 0
v -160 -256 0
v -192 -256 0
v -192 -224 0
v -160 -224 0
v -192 -256 0
v -224 -256 0
v -224 -224 0
v -192 -224 0
v -224 -256 0
v -256 -256 0
v -256 -224 0
v -224 -224 0
v -256 -256 0
v -288 -256 0
v -288 -224 0
v -256 -224 0
v -288 -256 0
v -320 -256 0
v -320 -224 0
v -288 -224 0
v -320 -256 0
v -352 -256 0
v -352 -224 0
v -320 -224 0

# Texture cooridinates (Count = 25)
vt 0 0.75
vt 0.1777778 0.75
vt 0.1777778 1
vt 0 1
vt 0.3555556 0.75
vt 0.3555556 1
vt 0.5333334 0.75
vt 0.5333334 1
vt 0.7111111 0.75
vt 0.7111111 1
vt 0 0.5
vt 0.1777778 0.5
vt 0.3555556 0.5
vt 0.5333334 0.5
vt 0.7111111 0.5
vt 0 0.25
vt 0.1777778 0.25
vt 0.3555556 0.25
vt 0.5333334 0.25
vt 0.7111111 0.25
vt 0 0
vt 0.1777778 0
vt 0.3555556 0
vt 0.5333334 0
vt 0.7111111 0

# Normal
vn 0 0 -1

# Mesh description
g hallway_mesh_0001

# Faces
f 1/1/1 2/2/1 3/3/1 4/4/1
f 5/2/1 6/5/1 7/6/1 8/3/1
f 9/5/1 10/7/1 11/8/1 12/6/1
f 13/7/1 14/9/1 15/10/1 16/8/1
f 17/1/1 18/2/1 19/3/1 20/4/1
f 21/2/1 22/5/1 23/6/1 24/3/1
f 25/5/1 26/7/1 27/8/1 28/6/1
f 29/7/1 30/9/1 31/10/1 32/8/1
f 33/1/1 34/2/1 35/3/1 36/4/1
f 37/2/1 38/5/1 39/6/1 40/3/1
f 41/5/1 42/7/1 43/8/1 44/6/1
f 45/11/1 46/12/1 47/2/1 48/1/1
f 49/12/1 50/13/1 51/5/1 52/2/1
f 53/13/1 54/14/1 55/7/1 56/5/1
f 57/14/1 58/15/1 59/9/1 60/7/1
f 61/11/1 62/12/1 63/2/1 64/1/1
f 65/12/1 66/13/1 67/5/1 68/2/1
f 69/13/1 70/14/1 71/7/1 72/5/1
f 73/14/1 74/15/1 75/9/1 76/7/1
f 77/11/1 78/12/1 79/2/1 80/1/1
f 81/12/1 82/13/1 83/5/1 84/2/1
f 85/13/1 86/14/1 87/7/1 88/5/1
f 89/16/1 90/17/1 91/12/1 92/11/1
f 93/17/1 94/18/1 95/13/1 96/12/1
f 97/18/1 98/19/1 99/14/1 100/13/1
f 101/19/1 102/20/1 103/15/1 104/14/1
f 105/16/1 106/17/1 107/12/1 108/11/1
f 109/17/1 110/18/1 111/13/1 112/12/1
f 113/18/1 114/19/1 115/14/1 116/13/1
f 117/19/1 118/20/1 119/15/1 120/14/1
f 121/16/1 122/17/1 123/12/1 124/11/1
f 125/17/1 126/18/1 127/13/1 128/12/1
f 129/18/1 130/19/1 131/14/1 132/13/1
f 133/21/1 134/22/1 135/17/1 136/16/1
f 137/22/1 138/23/1 139/18/1 140/17/1
f 141/23/1 142/24/1 143/19/1 144/18/1
f 145/24/1 146/25/1 147/20/1 148/19/1
f 149/21/1 150/22/1 151/17/1 152/16/1
f 153/22/1 154/23/1 155/18/1 156/17/1
f 157/23/1 158/24/1 159/19/1 160/18/1
f 161/24/1 162/25/1 163/20/1 164/19/1
f 165/21/1 166/22/1 167/17/1 168/16/1
f 169/22/1 170/23/1 171/18/1 172/17/1
f 173/23/1 174/24/1 175/19/1 176/18/1

