# Tiled2Unity generated file. Do not modify by hand.
# Wavefront file for 'hallway_mesh_0002.obj'

# Vertices (Count = 176)
v 0 -32 0
v -32 -32 0
v -32 0 0
v 0 0 0
v -32 -32 0
v -64 -32 0
v -64 0 0
v -32 0 0
v -64 -32 0
v -96 -32 0
v -96 0 0
v -64 0 0
v -96 -32 0
v -128 -32 0
v -128 0 0
v -96 0 0
v -128 -32 0
v -160 -32 0
v -160 0 0
v -128 0 0
v -160 -32 0
v -192 -32 0
v -192 0 0
v -160 0 0
v -192 -32 0
v -224 -32 0
v -224 0 0
v -192 0 0
v -224 -32 0
v -256 -32 0
v -256 0 0
v -224 0 0
v -256 -32 0
v -288 -32 0
v -288 0 0
v -256 0 0
v -288 -32 0
v -320 -32 0
v -320 0 0
v -288 0 0
v -320 -32 0
v -352 -32 0
v -352 0 0
v -320 0 0
v 0 -64 0
v -32 -64 0
v -32 -32 0
v 0 -32 0
v -32 -64 0
v -64 -64 0
v -64 -32 0
v -32 -32 0
v -64 -64 0
v -96 -64 0
v -96 -32 0
v -64 -32 0
v -96 -64 0
v -128 -64 0
v -128 -32 0
v -96 -32 0
v -128 -64 0
v -160 -64 0
v -160 -32 0
v -128 -32 0
v -160 -64 0
v -192 -64 0
v -192 -32 0
v -160 -32 0
v -192 -64 0
v -224 -64 0
v -224 -32 0
v -192 -32 0
v -224 -64 0
v -256 -64 0
v -256 -32 0
v -224 -32 0
v -256 -64 0
v -288 -64 0
v -288 -32 0
v -256 -32 0
v -288 -64 0
v -320 -64 0
v -320 -32 0
v -288 -32 0
v -320 -64 0
v -352 -64 0
v -352 -32 0
v -320 -32 0
v 0 -96 0
v -32 -96 0
v -32 -64 0
v 0 -64 0
v -32 -96 0
v -64 -96 0
v -64 -64 0
v -32 -64 0
v -64 -96 0
v -96 -96 0
v -96 -64 0
v -64 -64 0
v -96 -96 0
v -128 -96 0
v -128 -64 0
v -96 -64 0
v -128 -96 0
v -160 -96 0
v -160 -64 0
v -128 -64 0
v -160 -96 0
v -192 -96 0
v -192 -64 0
v -160 -64 0
v -192 -96 0
v -224 -96 0
v -224 -64 0
v -192 -64 0
v -224 -96 0
v -256 -96 0
v -256 -64 0
v -224 -64 0
v -256 -96 0
v -288 -96 0
v -288 -64 0
v -256 -64 0
v -288 -96 0
v -320 -96 0
v -320 -64 0
v -288 -64 0
v -320 -96 0
v -352 -96 0
v -352 -64 0
v -320 -64 0
v 0 -128 0
v -32 -128 0
v -32 -96 0
v 0 -96 0
v -32 -128 0
v -64 -128 0
v -64 -96 0
v -32 -96 0
v -64 -128 0
v -96 -128 0
v -96 -96 0
v -64 -96 0
v -96 -128 0
v -128 -128 0
v -128 -96 0
v -96 -96 0
v -128 -128 0
v -160 -128 0
v -160 -96 0
v -128 -96 0
v -160 -128 0
v -192 -128 0
v -192 -96 0
v -160 -96 0
v -192 -128 0
v -224 -128 0
v -224 -96 0
v -192 -96 0
v -224 -128 0
v -256 -128 0
v -256 -96 0
v -224 -96 0
v -256 -128 0
v -288 -128 0
v -288 -96 0
v -256 -96 0
v -288 -128 0
v -320 -128 0
v -320 -96 0
v -288 -96 0
v -320 -128 0
v -352 -128 0
v -352 -96 0
v -320 -96 0

# Texture cooridinates (Count = 39)
vt 0.7804878 0.75
vt 0.9105691 0.75
vt 0.9105691 1
vt 0.7804878 1
vt 0.1300813 0.75
vt 0.2601626 0.75
vt 0.2601626 1
vt 0.1300813 1
vt 0.3902439 0.75
vt 0.3902439 1
vt 0.5203252 0.75
vt 0.5203252 1
vt 0.6504065 0.75
vt 0.6504065 1
vt 0 0.75
vt 0 1
vt 0.7804878 0.5
vt 0.9105691 0.5
vt 0.1300813 0.5
vt 0.2601626 0.5
vt 0.3902439 0.5
vt 0.5203252 0.5
vt 0.6504065 0.5
vt 0 0.5
vt 0.7804878 0.25
vt 0.9105691 0.25
vt 0.1300813 0.25
vt 0.2601626 0.25
vt 0.3902439 0.25
vt 0.5203252 0.25
vt 0.6504065 0.25
vt 0 0.25
vt 0.7804878 0
vt 0.9105691 0
vt 0.3902439 0
vt 0.5203252 0
vt 0.6504065 0
vt 0 0
vt 0.1300813 0

# Normal
vn 0 0 -1

# Mesh description
g hallway_mesh_0002

# Faces
f 1/1/1 2/2/1 3/3/1 4/4/1
f 5/5/1 6/6/1 7/7/1 8/8/1
f 9/6/1 10/9/1 11/10/1 12/7/1
f 13/9/1 14/11/1 15/12/1 16/10/1
f 17/11/1 18/13/1 19/14/1 20/12/1
f 21/13/1 22/1/1 23/4/1 24/14/1
f 25/1/1 26/2/1 27/3/1 28/4/1
f 29/15/1 30/5/1 31/8/1 32/16/1
f 33/1/1 34/2/1 35/3/1 36/4/1
f 37/15/1 38/5/1 39/8/1 40/16/1
f 41/1/1 42/2/1 43/3/1 44/4/1
f 45/17/1 46/18/1 47/2/1 48/1/1
f 49/19/1 50/20/1 51/6/1 52/5/1
f 53/20/1 54/21/1 55/9/1 56/6/1
f 57/21/1 58/22/1 59/11/1 60/9/1
f 61/22/1 62/23/1 63/13/1 64/11/1
f 65/23/1 66/17/1 67/1/1 68/13/1
f 69/17/1 70/18/1 71/2/1 72/1/1
f 73/24/1 74/19/1 75/5/1 76/15/1
f 77/17/1 78/18/1 79/2/1 80/1/1
f 81/24/1 82/19/1 83/5/1 84/15/1
f 85/17/1 86/18/1 87/2/1 88/1/1
f 89/25/1 90/26/1 91/18/1 92/17/1
f 93/27/1 94/28/1 95/20/1 96/19/1
f 97/28/1 98/29/1 99/21/1 100/20/1
f 101/29/1 102/30/1 103/22/1 104/21/1
f 105/30/1 106/31/1 107/23/1 108/22/1
f 109/31/1 110/25/1 111/17/1 112/23/1
f 113/25/1 114/26/1 115/18/1 116/17/1
f 117/32/1 118/27/1 119/19/1 120/24/1
f 121/25/1 122/26/1 123/18/1 124/17/1
f 125/32/1 126/27/1 127/19/1 128/24/1
f 129/25/1 130/26/1 131/18/1 132/17/1
f 133/33/1 134/34/1 135/26/1 136/25/1
f 137/35/1 138/36/1 139/30/1 140/29/1
f 141/36/1 142/37/1 143/31/1 144/30/1
f 145/35/1 146/36/1 147/30/1 148/29/1
f 149/36/1 150/37/1 151/31/1 152/30/1
f 153/37/1 154/33/1 155/25/1 156/31/1
f 157/33/1 158/34/1 159/26/1 160/25/1
f 161/38/1 162/39/1 163/27/1 164/32/1
f 165/33/1 166/34/1 167/26/1 168/25/1
f 169/38/1 170/39/1 171/27/1 172/32/1
f 173/33/1 174/34/1 175/26/1 176/25/1

