# Tiled2Unity generated file. Do not modify by hand.
# Wavefront file for 'hallway_mesh_0005.obj'

# Vertices (Count = 32)
v -64 -96 0
v -96 -96 0
v -96 -64 0
v -64 -64 0
v -288 -96 0
v -320 -96 0
v -320 -64 0
v -288 -64 0
v -64 -128 0
v -96 -128 0
v -96 -96 0
v -64 -96 0
v -288 -128 0
v -320 -128 0
v -320 -96 0
v -288 -96 0
v -32 -256 0
v -64 -256 0
v -64 -224 0
v -32 -224 0
v -256 -256 0
v -288 -256 0
v -288 -224 0
v -256 -224 0
v -32 -288 0
v -64 -288 0
v -64 -256 0
v -32 -256 0
v -256 -288 0
v -288 -288 0
v -288 -256 0
v -256 -256 0

# Texture cooridinates (Count = 6)
vt 0 0.6923077
vt 0.1066667 0.6923077
vt 0.1066667 0.7692308
vt 0 0.7692308
vt 0 0.6153846
vt 0.1066667 0.6153846

# Normal
vn 0 0 -1

# Mesh description
g hallway_mesh_0005

# Faces
f 1/1/1 2/2/1 3/3/1 4/4/1
f 5/1/1 6/2/1 7/3/1 8/4/1
f 9/5/1 10/6/1 11/2/1 12/1/1
f 13/5/1 14/6/1 15/2/1 16/1/1
f 17/1/1 18/2/1 19/3/1 20/4/1
f 21/1/1 22/2/1 23/3/1 24/4/1
f 25/5/1 26/6/1 27/2/1 28/1/1
f 29/5/1 30/6/1 31/2/1 32/1/1

