# Tiled2Unity generated file. Do not modify by hand.
# Wavefront file for 'class-room2_mesh_0003.obj'

# Vertices (Count = 96)
v -96 -32 0
v -128 -32 0
v -128 0 0
v -96 0 0
v -128 -32 0
v -160 -32 0
v -160 0 0
v -128 0 0
v -160 -32 0
v -192 -32 0
v -192 0 0
v -160 0 0
v -192 -32 0
v -224 -32 0
v -224 0 0
v -192 0 0
v -224 -32 0
v -256 -32 0
v -256 0 0
v -224 0 0
v -96 -64 0
v -128 -64 0
v -128 -32 0
v -96 -32 0
v -128 -64 0
v -160 -64 0
v -160 -32 0
v -128 -32 0
v -160 -64 0
v -192 -64 0
v -192 -32 0
v -160 -32 0
v -192 -64 0
v -224 -64 0
v -224 -32 0
v -192 -32 0
v -224 -64 0
v -256 -64 0
v -256 -32 0
v -224 -32 0
v -96 -96 0
v -128 -96 0
v -128 -64 0
v -96 -64 0
v -128 -96 0
v -160 -96 0
v -160 -64 0
v -128 -64 0
v -160 -96 0
v -192 -96 0
v -192 -64 0
v -160 -64 0
v -192 -96 0
v -224 -96 0
v -224 -64 0
v -192 -64 0
v -224 -96 0
v -256 -96 0
v -256 -64 0
v -224 -64 0
v 0 -192 0
v -32 -192 0
v -32 -160 0
v 0 -160 0
v -128 -192 0
v -160 -192 0
v -160 -160 0
v -128 -160 0
v -224 -192 0
v -256 -192 0
v -256 -160 0
v -224 -160 0
v 0 -256 0
v -32 -256 0
v -32 -224 0
v 0 -224 0
v -128 -256 0
v -160 -256 0
v -160 -224 0
v -128 -224 0
v -224 -256 0
v -256 -256 0
v -256 -224 0
v -224 -224 0
v 0 -320 0
v -32 -320 0
v -32 -288 0
v 0 -288 0
v -128 -320 0
v -160 -320 0
v -160 -288 0
v -128 -288 0
v -224 -320 0
v -256 -320 0
v -256 -288 0
v -224 -288 0

# Texture cooridinates (Count = 18)
vt 0 0.8461539
vt 0.1066667 0.8461539
vt 0.1066667 0.7692308
vt 0 0.7692308
vt 0.2133333 0.8461539
vt 0.2133333 0.7692308
vt 0.32 0.8461539
vt 0.32 0.7692308
vt 0.4266667 0.8461539
vt 0.4266667 0.7692308
vt 0.1066667 0.9230769
vt 0 0.9230769
vt 0.2133333 0.9230769
vt 0.32 0.9230769
vt 0.64 0.9230769
vt 0.7466667 0.9230769
vt 0.7466667 1
vt 0.64 1

# Normal
vn 0 0 -1

# Mesh description
g class-room2_mesh_0003

# Faces
f 1/1/1 2/2/1 3/3/1 4/4/1
f 5/2/1 6/5/1 7/6/1 8/3/1
f 9/5/1 10/7/1 11/8/1 12/6/1
f 13/7/1 14/9/1 15/10/1 16/8/1
f 17/2/1 18/1/1 19/4/1 20/3/1
f 21/1/1 22/2/1 23/11/1 24/12/1
f 25/2/1 26/5/1 27/13/1 28/11/1
f 29/5/1 30/7/1 31/14/1 32/13/1
f 33/5/1 34/7/1 35/14/1 36/13/1
f 37/2/1 38/1/1 39/12/1 40/11/1
f 41/4/1 42/3/1 43/2/1 44/1/1
f 45/3/1 46/6/1 47/5/1 48/2/1
f 49/6/1 50/8/1 51/7/1 52/5/1
f 53/8/1 54/10/1 55/9/1 56/7/1
f 57/3/1 58/4/1 59/1/1 60/2/1
f 61/15/1 62/16/1 63/17/1 64/18/1
f 65/15/1 66/16/1 67/17/1 68/18/1
f 69/15/1 70/16/1 71/17/1 72/18/1
f 73/15/1 74/16/1 75/17/1 76/18/1
f 77/15/1 78/16/1 79/17/1 80/18/1
f 81/15/1 82/16/1 83/17/1 84/18/1
f 85/15/1 86/16/1 87/17/1 88/18/1
f 89/15/1 90/16/1 91/17/1 92/18/1
f 93/15/1 94/16/1 95/17/1 96/18/1

