# Tiled2Unity generated file. Do not modify by hand.
# Wavefront file for 'art-room_mesh_0005.obj'

# Vertices (Count = 64)
v 0 -352 0
v -32 -352 0
v -32 -320 0
v 0 -320 0
v -32 -352 0
v -64 -352 0
v -64 -320 0
v -32 -320 0
v -64 -352 0
v -96 -352 0
v -96 -320 0
v -64 -320 0
v -96 -352 0
v -128 -352 0
v -128 -320 0
v -96 -320 0
v -128 -352 0
v -160 -352 0
v -160 -320 0
v -128 -320 0
v -160 -352 0
v -192 -352 0
v -192 -320 0
v -160 -320 0
v -192 -352 0
v -224 -352 0
v -224 -320 0
v -192 -320 0
v -224 -352 0
v -256 -352 0
v -256 -320 0
v -224 -320 0
v 0 -384 0
v -32 -384 0
v -32 -352 0
v 0 -352 0
v -32 -384 0
v -64 -384 0
v -64 -352 0
v -32 -352 0
v -64 -384 0
v -96 -384 0
v -96 -352 0
v -64 -352 0
v -96 -384 0
v -128 -384 0
v -128 -352 0
v -96 -352 0
v -128 -384 0
v -160 -384 0
v -160 -352 0
v -128 -352 0
v -160 -384 0
v -192 -384 0
v -192 -352 0
v -160 -352 0
v -192 -384 0
v -224 -384 0
v -224 -352 0
v -192 -352 0
v -224 -384 0
v -256 -384 0
v -256 -352 0
v -224 -352 0

# Texture cooridinates (Count = 18)
vt 0 0.25
vt 0.1777778 0.25
vt 0.1777778 0.5
vt 0 0.5
vt 0.3555556 0.25
vt 0.3555556 0.5
vt 0.5333334 0.25
vt 0.5333334 0.5
vt 0.7111111 0.25
vt 0.7111111 0.5
vt 0.8888889 0.25
vt 0.8888889 0.5
vt 0 0
vt 0.1777778 0
vt 0.3555556 0
vt 0.5333334 0
vt 0.7111111 0
vt 0.8888889 0

# Normal
vn 0 0 -1

# Mesh description
g art-room_mesh_0005

# Faces
f 1/1/1 2/2/1 3/3/1 4/4/1
f 5/2/1 6/5/1 7/6/1 8/3/1
f 9/5/1 10/7/1 11/8/1 12/6/1
f 13/7/1 14/9/1 15/10/1 16/8/1
f 17/9/1 18/11/1 19/12/1 20/10/1
f 21/1/1 22/2/1 23/3/1 24/4/1
f 25/2/1 26/5/1 27/6/1 28/3/1
f 29/5/1 30/7/1 31/8/1 32/6/1
f 33/13/1 34/14/1 35/2/1 36/1/1
f 37/14/1 38/15/1 39/5/1 40/2/1
f 41/15/1 42/16/1 43/7/1 44/5/1
f 45/16/1 46/17/1 47/9/1 48/7/1
f 49/17/1 50/18/1 51/11/1 52/9/1
f 53/13/1 54/14/1 55/2/1 56/1/1
f 57/14/1 58/15/1 59/5/1 60/2/1
f 61/15/1 62/16/1 63/7/1 64/5/1

