# Tiled2Unity generated file. Do not modify by hand.
# Wavefront file for 'class-room_mesh_0003.obj'

# Vertices (Count = 60)
v -32 -32 0
v -64 -32 0
v -64 0 0
v -32 0 0
v -64 -32 0
v -96 -32 0
v -96 0 0
v -64 0 0
v -96 -32 0
v -128 -32 0
v -128 0 0
v -96 0 0
v -128 -32 0
v -160 -32 0
v -160 0 0
v -128 0 0
v -160 -32 0
v -192 -32 0
v -192 0 0
v -160 0 0
v -32 -64 0
v -64 -64 0
v -64 -32 0
v -32 -32 0
v -64 -64 0
v -96 -64 0
v -96 -32 0
v -64 -32 0
v -96 -64 0
v -128 -64 0
v -128 -32 0
v -96 -32 0
v -128 -64 0
v -160 -64 0
v -160 -32 0
v -128 -32 0
v -160 -64 0
v -192 -64 0
v -192 -32 0
v -160 -32 0
v -32 -96 0
v -64 -96 0
v -64 -64 0
v -32 -64 0
v -64 -96 0
v -96 -96 0
v -96 -64 0
v -64 -64 0
v -96 -96 0
v -128 -96 0
v -128 -64 0
v -96 -64 0
v -128 -96 0
v -160 -96 0
v -160 -64 0
v -128 -64 0
v -160 -96 0
v -192 -96 0
v -192 -64 0
v -160 -64 0

# Texture cooridinates (Count = 24)
vt 0 0.9230769
vt 0.1066667 0.9230769
vt 0.1066667 1
vt 0 1
vt 0.2133333 0.9230769
vt 0.2133333 1
vt 0.32 0.9230769
vt 0.32 1
vt 0.4266667 0.9230769
vt 0.4266667 1
vt 0.5333334 0.9230769
vt 0.5333334 1
vt 0 0.8461539
vt 0.1066667 0.8461539
vt 0.2133333 0.8461539
vt 0.32 0.8461539
vt 0.4266667 0.8461539
vt 0.5333334 0.8461539
vt 0 0.7692308
vt 0.1066667 0.7692308
vt 0.2133333 0.7692308
vt 0.32 0.7692308
vt 0.4266667 0.7692308
vt 0.5333334 0.7692308

# Normal
vn 0 0 -1

# Mesh description
g class-room_mesh_0003

# Faces
f 1/1/1 2/2/1 3/3/1 4/4/1
f 5/2/1 6/5/1 7/6/1 8/3/1
f 9/5/1 10/7/1 11/8/1 12/6/1
f 13/7/1 14/9/1 15/10/1 16/8/1
f 17/9/1 18/11/1 19/12/1 20/10/1
f 21/13/1 22/14/1 23/2/1 24/1/1
f 25/14/1 26/15/1 27/5/1 28/2/1
f 29/15/1 30/16/1 31/7/1 32/5/1
f 33/16/1 34/17/1 35/9/1 36/7/1
f 37/17/1 38/18/1 39/11/1 40/9/1
f 41/19/1 42/20/1 43/14/1 44/13/1
f 45/20/1 46/21/1 47/15/1 48/14/1
f 49/21/1 50/22/1 51/16/1 52/15/1
f 53/22/1 54/23/1 55/17/1 56/16/1
f 57/23/1 58/24/1 59/18/1 60/17/1

