# Tiled2Unity generated file. Do not modify by hand.
# Wavefront file for 'class-room_mesh_0006.obj'

# Vertices (Count = 8)
v -64 -352 0
v -96 -352 0
v -96 -320 0
v -64 -320 0
v -64 -384 0
v -96 -384 0
v -96 -352 0
v -64 -352 0

# Texture cooridinates (Count = 6)
vt 0 0.6923077
vt 0.1066667 0.6923077
vt 0.1066667 0.7692308
vt 0 0.7692308
vt 0 0.6153846
vt 0.1066667 0.6153846

# Normal
vn 0 0 -1

# Mesh description
g class-room_mesh_0006

# Faces
f 1/1/1 2/2/1 3/3/1 4/4/1
f 5/5/1 6/6/1 7/2/1 8/1/1

